# xmcd
#
# Track frame offsets:
#	150
#	17531
#	34468
#	50266
#	67323
#	84869
#	106952
#	128069
#	144883
#	160705
#	174403
#	192047
#	209211
#
# Disc length: 3030 seconds
#
# Revision: 0
# Processed by: cddbd v1.5.2PL0 Copyright (c) Steve Scherf et al.
# Submitted via: dBpowerAMP V4.0
#
DISCID=ad0bd40d
DTITLE=Robin English - Robin English
DYEAR=2006
DGENRE=Country
TTITLE0=I`m the One
TTITLE1=Baby, You`re the Man
TTITLE2=Lion And the Lamb
TTITLE3=Hello Me
TTITLE4=Yellow Rose In Me
TTITLE5=Mission Of Mercy
TTITLE6=Cotton Field Girl
TTITLE7=Least I Can Do
TTITLE8=Wake Up Loving You
TTITLE9=I`m Yours
TTITLE10=Enjoy the Ride
TTITLE11=Child In Me
TTITLE12=Mama`s Don`t Let Your Cowboys Grow Up To Be Babies
EXTD=
EXTT0=
EXTT1=
EXTT2=
EXTT3=
EXTT4=
EXTT5=
EXTT6=
EXTT7=
EXTT8=
EXTT9=
EXTT10=
EXTT11=
EXTT12=
PLAYORDER=
